# Blender v2.79 (sub 0) OBJ File: 'casado.blend'
# www.blender.org
mtllib casado.mtl
o Cube.001
v -0.548681 -0.116318 0.450573
v -0.548681 0.981045 0.450573
v -0.548681 -0.116318 -0.450573
v -0.548681 0.981045 -0.450573
v 0.548681 -0.116318 0.450573
v 0.548681 0.981045 0.450573
v 0.548681 -0.116318 -0.450573
v 0.548681 0.981045 -0.450573
v -0.548681 -0.116318 0.000000
v -0.548681 0.981045 0.000000
v 0.548681 -0.116318 0.000000
v 0.548681 0.981045 0.000000
v -0.582832 0.968627 0.000000
v -0.582832 0.968627 -0.574765
v 0.585506 0.968627 -0.574765
v 0.585506 0.968627 0.000000
v 0.585506 0.968627 0.574765
v -0.582832 0.968627 0.574765
v -0.582832 1.458506 0.000000
v 0.585506 1.458506 0.000000
v 0.324373 1.135159 0.363476
v 0.324373 1.486396 0.363476
v 0.324373 1.135159 0.206418
v 0.324373 1.486396 0.206418
v 0.481431 1.135159 0.363476
v 0.481431 1.486396 0.363476
v 0.481431 1.135159 0.206418
v 0.481431 1.486396 0.206418
v 0.354729 1.486396 0.333120
v 0.354729 1.486396 0.236774
v 0.451075 1.486396 0.236774
v 0.451075 1.486396 0.333120
v 0.354729 1.182535 0.333120
v 0.354729 1.182535 0.236774
v 0.451075 1.182535 0.236774
v 0.451075 1.182535 0.333120
v -0.548681 0.633220 0.450573
v -0.548681 0.633220 -0.450573
v 0.548681 0.633220 -0.450573
v 0.548681 0.633220 0.450573
v 0.548681 0.633220 0.000000
v -0.548681 0.633220 0.000000
v -0.548681 0.633220 -0.942949
v -0.548681 -0.116318 -0.942949
v 0.548681 -0.116318 -0.942949
v 0.548681 0.633220 -0.942949
v -0.575720 0.633220 -0.438441
v 0.575720 0.633220 -0.438441
v -0.575720 0.633220 -1.042206
v 0.575720 0.633220 -1.042206
v -0.575720 0.828811 -0.443126
v 0.575720 0.828811 -0.443126
v -0.575720 0.828811 -0.476387
v 0.575720 0.828811 -0.476387
vn -1.0000 0.0000 0.0000
vn 0.0000 0.0000 -1.0000
vn 1.0000 0.0000 0.0000
vn 0.0000 0.0000 1.0000
vn 0.0000 -1.0000 0.0000
vn -0.3195 -0.9476 0.0000
vn 0.3417 -0.9398 0.0000
vn 0.0000 -0.9950 -0.0995
vn 0.0000 -0.9950 0.0995
vn 0.0000 0.7611 0.6487
vn 0.0000 0.7611 -0.6487
vn 0.0000 1.0000 0.0000
vn 0.0000 0.0239 0.9997
vn 0.0000 0.9451 -0.3267
usemtl None
s off
f 42//1 10//1 4//1 38//1
f 38//2 4//2 8//2 39//2
f 41//3 12//3 6//3 40//3
f 40//4 6//4 2//4 37//4
f 9//5 11//5 5//5 1//5
f 12//6 8//6 15//6 16//6
f 6//6 12//6 16//6 17//6
f 3//5 7//5 11//5 9//5
f 39//3 8//3 12//3 41//3
f 37//1 2//1 10//1 42//1
f 17//3 16//3 20//3
f 13//1 18//1 19//1
f 10//7 2//7 18//7 13//7
f 4//7 10//7 13//7 14//7
f 2//8 6//8 17//8 18//8
f 8//9 4//9 14//9 15//9
f 14//1 13//1 19//1
f 16//3 15//3 20//3
f 18//10 17//10 20//10 19//10
f 15//11 14//11 19//11 20//11
f 21//1 22//1 24//1 23//1
f 23//2 24//2 28//2 27//2
f 27//3 28//3 26//3 25//3
f 25//4 26//4 22//4 21//4
f 23//5 27//5 25//5 21//5
f 26//12 28//12 31//12 32//12
f 32//1 31//1 35//1 36//1
f 24//12 22//12 29//12 30//12
f 22//12 26//12 32//12 29//12
f 28//12 24//12 30//12 31//12
f 35//12 34//12 33//12 36//12
f 30//3 29//3 33//3 34//3
f 29//2 32//2 36//2 33//2
f 31//4 30//4 34//4 35//4
f 1//1 37//1 42//1 9//1
f 7//3 39//3 41//3 11//3
f 5//4 40//4 37//4 1//4
f 11//3 41//3 40//3 5//3
f 39//3 7//3 45//3 46//3
f 9//1 42//1 38//1 3//1
f 44//2 43//2 46//2 45//2
f 7//5 3//5 44//5 45//5
f 3//1 38//1 43//1 44//1
f 43//5 38//5 47//5 49//5
f 48//3 50//3 54//3 52//3
f 39//5 46//5 50//5 48//5
f 46//5 43//5 49//5 50//5
f 38//5 39//5 48//5 47//5
f 51//12 52//12 54//12 53//12
f 47//13 48//13 52//13 51//13
f 49//1 47//1 51//1 53//1
f 50//14 49//14 53//14 54//14
o Cube
v 1.000000 -0.027649 -1.000000
v 1.000000 -0.027649 1.000000
v -1.000000 -0.027649 1.000000
v -1.000000 -0.027649 -1.000000
v 1.000000 0.051536 -0.999999
v 0.999999 0.051536 1.000001
v -1.000000 0.051536 1.000000
v -1.000000 0.051536 -1.000000
vn 0.0000 -1.0000 0.0000
vn 0.0000 1.0000 0.0000
vn 1.0000 0.0000 0.0000
vn -0.0000 -0.0000 1.0000
vn -1.0000 -0.0000 -0.0000
vn 0.0000 0.0000 -1.0000
usemtl Material
s off
f 55//15 56//15 57//15 58//15
f 59//16 62//16 61//16 60//16
f 55//17 59//17 60//17 56//17
f 56//18 60//18 61//18 57//18
f 57//19 61//19 62//19 58//19
f 59//20 55//20 58//20 62//20
